<mxfile host="app.diagrams.net" modified="2024-01-07T11:33:25.495Z" agent="Mozilla/5.0 (Windows NT 10.0; Win64; x64) AppleWebKit/537.36 (KHTML, like Gecko) Chrome/120.0.0.0 Safari/537.36 Edg/120.0.0.0" etag="IvayCUaZubqRocrhCCZI" version="22.1.17" type="github">
  <diagram name="Page-1" id="oQsLSjxphGvydDuq7tBn">
    <mxGraphModel dx="1173" dy="665" grid="1" gridSize="10" guides="1" tooltips="1" connect="1" arrows="1" fold="1" page="1" pageScale="1" pageWidth="850" pageHeight="1100" math="0" shadow="0">
      <root>
        <mxCell id="0" />
        <mxCell id="1" parent="0" />
        <mxCell id="t2YXsX0MIA6ouYu7j1KV-1" value="Publisher - 1" style="whiteSpace=wrap;html=1;aspect=fixed;fontStyle=1" vertex="1" parent="1">
          <mxGeometry x="80" y="60" width="140" height="140" as="geometry" />
        </mxCell>
        <mxCell id="t2YXsX0MIA6ouYu7j1KV-3" value="&lt;b&gt;Publisher - 2&lt;/b&gt;" style="whiteSpace=wrap;html=1;aspect=fixed;" vertex="1" parent="1">
          <mxGeometry x="355" y="60" width="140" height="140" as="geometry" />
        </mxCell>
        <mxCell id="t2YXsX0MIA6ouYu7j1KV-4" value="&lt;b&gt;Publisher - 3&lt;/b&gt;" style="whiteSpace=wrap;html=1;aspect=fixed;" vertex="1" parent="1">
          <mxGeometry x="620" y="60" width="140" height="140" as="geometry" />
        </mxCell>
        <mxCell id="t2YXsX0MIA6ouYu7j1KV-13" value="" style="endArrow=classic;html=1;rounded=0;" edge="1" parent="1">
          <mxGeometry width="50" height="50" relative="1" as="geometry">
            <mxPoint x="149.5" y="200" as="sourcePoint" />
            <mxPoint x="149.5" y="290" as="targetPoint" />
          </mxGeometry>
        </mxCell>
        <mxCell id="t2YXsX0MIA6ouYu7j1KV-14" value="" style="endArrow=classic;html=1;rounded=0;" edge="1" parent="1">
          <mxGeometry width="50" height="50" relative="1" as="geometry">
            <mxPoint x="689.5" y="200" as="sourcePoint" />
            <mxPoint x="689.5" y="290" as="targetPoint" />
          </mxGeometry>
        </mxCell>
        <mxCell id="t2YXsX0MIA6ouYu7j1KV-15" value="" style="endArrow=classic;html=1;rounded=0;" edge="1" parent="1">
          <mxGeometry width="50" height="50" relative="1" as="geometry">
            <mxPoint x="424" y="200" as="sourcePoint" />
            <mxPoint x="424" y="290" as="targetPoint" />
          </mxGeometry>
        </mxCell>
        <mxCell id="t2YXsX0MIA6ouYu7j1KV-16" value="" style="shape=link;html=1;rounded=0;" edge="1" parent="1">
          <mxGeometry width="100" relative="1" as="geometry">
            <mxPoint x="140" y="300" as="sourcePoint" />
            <mxPoint x="710" y="300" as="targetPoint" />
            <Array as="points">
              <mxPoint x="420" y="300" />
            </Array>
          </mxGeometry>
        </mxCell>
        <mxCell id="t2YXsX0MIA6ouYu7j1KV-17" value="Pipeline" style="shape=cylinder3;whiteSpace=wrap;html=1;boundedLbl=1;backgroundOutline=1;size=15;" vertex="1" parent="1">
          <mxGeometry x="395" y="420" width="60" height="210" as="geometry" />
        </mxCell>
        <mxCell id="t2YXsX0MIA6ouYu7j1KV-19" value="" style="endArrow=classic;html=1;rounded=0;" edge="1" parent="1">
          <mxGeometry width="50" height="50" relative="1" as="geometry">
            <mxPoint x="425" y="320" as="sourcePoint" />
            <mxPoint x="425" y="410" as="targetPoint" />
          </mxGeometry>
        </mxCell>
      </root>
    </mxGraphModel>
  </diagram>
</mxfile>
